<svg width="512" height="512" viewBox="0 0 512 512" style="color:currentColor" xmlns="http://www.w3.org/2000/svg" class="h-full w-full"><rect width="512" height="512" x="0" y="0" rx="30" fill="transparent" stroke="transparent" stroke-width="0" stroke-opacity="100%" paint-order="stroke"></rect><svg width="256px" height="256px" viewBox="0 0 32 32" fill="currentColor" x="128" y="128" role="img" style="display:inline-block;vertical-align:middle" xmlns="http://www.w3.org/2000/svg"><g fill="currentColor"><path fill="currentColor" d="M16 2A14.172 14.172 0 0 0 2 16a14.172 14.172 0 0 0 14 14a14.172 14.172 0 0 0 14-14A14.172 14.172 0 0 0 16 2Zm8 15h-7v7h-2v-7H8v-2h7V8h2v7h7Z"/><path fill="none" d="M24 17h-7v7h-2v-7H8v-2h7V8h2v7h7v2z"/></g></svg></svg>