<svg width="512" height="512" viewBox="0 0 512 512" style="color:currentColor" xmlns="http://www.w3.org/2000/svg" class="h-full w-full"><rect width="512" height="512" x="0" y="0" rx="30" fill="transparent" stroke="transparent" stroke-width="0" stroke-opacity="100%" paint-order="stroke"></rect><svg width="256px" height="256px" viewBox="0 0 32 32" fill="currentColor" x="128" y="128" role="img" style="display:inline-block;vertical-align:middle" xmlns="http://www.w3.org/2000/svg"><g fill="currentColor"><path fill="currentColor" d="M8 4v4H4V4Zm2-2H2v8h8Zm8 2v4h-4V4Zm2-2h-8v8h8Zm8 2v4h-4V4Zm2-2h-8v8h8ZM8 14v4H4v-4Zm2-2H2v8h8Zm8 2v4h-4v-4Zm2-2h-8v8h8Zm8 2v4h-4v-4Zm2-2h-8v8h8ZM8 24v4H4v-4Zm2-2H2v8h8Zm8 2v4h-4v-4Zm2-2h-8v8h8Zm8 2v4h-4v-4Zm2-2h-8v8h8Z"/></g></svg></svg>