<svg width="512" height="512" viewBox="0 0 512 512" style="color:currentColor" xmlns="http://www.w3.org/2000/svg" class="h-full w-full"><rect width="512" height="512" x="0" y="0" rx="30" fill="transparent" stroke="transparent" stroke-width="0" stroke-opacity="100%" paint-order="stroke"></rect><svg width="256px" height="256px" viewBox="0 0 32 32" fill="currentColor" x="128" y="128" role="img" style="display:inline-block;vertical-align:middle" xmlns="http://www.w3.org/2000/svg"><g fill="currentColor"><path fill="currentColor" d="M26 21h-3v-3h-2v3h-3v2h3v3h2v-3h3z"/><path fill="currentColor" d="M22 30c-4.4 0-8-3.6-8-8s3.6-8 8-8s8 3.6 8 8s-3.6 8-8 8zm0-14c-3.3 0-6 2.7-6 6s2.7 6 6 6s6-2.7 6-6s-2.7-6-6-6z"/><path fill="currentColor" d="M28 6c0-1.1-.9-2-2-2h-4V2h-2v2h-8V2h-2v2H6c-1.1 0-2 .9-2 2v20c0 1.1.9 2 2 2h6v-2H6V6h4v2h2V6h8v2h2V6h4v6h2V6z"/></g></svg></svg>