<svg width="512" height="512" viewBox="0 0 512 512" style="color:currentColor" xmlns="http://www.w3.org/2000/svg" class="h-full w-full"><rect width="512" height="512" x="0" y="0" rx="30" fill="transparent" stroke="transparent" stroke-width="0" stroke-opacity="100%" paint-order="stroke"></rect><svg width="256px" height="256px" viewBox="0 0 32 32" fill="currentColor" x="128" y="128" role="img" style="display:inline-block;vertical-align:middle" xmlns="http://www.w3.org/2000/svg"><g fill="currentColor"><path fill="currentColor" d="M30 22h-6v-6h-2v6h-6v2h6v6h2v-6h6z"/><path fill="currentColor" d="M28 6c0-1.1-.9-2-2-2h-4V2h-2v2h-8V2h-2v2H6c-1.1 0-2 .9-2 2v20c0 1.1.9 2 2 2h8v-2H6V6h4v2h2V6h8v2h2V6h4v8h2V6z"/></g></svg></svg>