<svg width="512" height="512" viewBox="0 0 512 512" style="color:currentColor" xmlns="http://www.w3.org/2000/svg" class="h-full w-full"><rect width="512" height="512" x="0" y="0" rx="30" fill="transparent" stroke="transparent" stroke-width="0" stroke-opacity="100%" paint-order="stroke"></rect><svg width="256px" height="256px" viewBox="0 0 32 32" fill="currentColor" x="128" y="128" role="img" style="display:inline-block;vertical-align:middle" xmlns="http://www.w3.org/2000/svg"><g fill="currentColor"><path fill="currentColor" d="M12 23a6 6 0 1 1 6-6a6 6 0 0 1-6 6Zm0-10a4 4 0 1 0 4 4a4 4 0 0 0-4-4Z"/><path fill="currentColor" d="M29 27H3a1 1 0 0 1-1-1V6a1 1 0 0 1 1-1h26a1 1 0 0 1 1 1v20a1 1 0 0 1-1 1ZM4 25h24V7H4Z"/><path fill="currentColor" d="M19 9h7v2h-7z"/><circle cx="12" cy="17" r="1" fill="currentColor"/></g></svg></svg>