<svg width="512" height="512" viewBox="0 0 512 512" style="color:currentColor" xmlns="http://www.w3.org/2000/svg" class="h-full w-full"><rect width="512" height="512" x="0" y="0" rx="30" fill="transparent" stroke="transparent" stroke-width="0" stroke-opacity="100%" paint-order="stroke"></rect><svg width="256px" height="256px" viewBox="0 0 32 32" fill="currentColor" x="128" y="128" role="img" style="display:inline-block;vertical-align:middle" xmlns="http://www.w3.org/2000/svg"><g fill="currentColor"><path fill="currentColor" d="M13 19h6v2h-6z"/><path fill="currentColor" d="m25.44 14l-1.27-4.55A2.009 2.009 0 0 0 22.246 8H9.754a2.009 2.009 0 0 0-1.923 1.45L6.531 14H4v2h2v7a2.002 2.002 0 0 0 2 2v3h2v-3h12v3h2v-3a2.002 2.002 0 0 0 2-2v-7h2v-2ZM9.755 10h12.492l1.428 5H8.326ZM24 21v2H8v-2h2v-2H8v-2h16v2h-2v2Z"/></g></svg></svg>