<svg width="512" height="512" viewBox="0 0 512 512" style="color:currentColor" xmlns="http://www.w3.org/2000/svg" class="h-full w-full"><rect width="512" height="512" x="0" y="0" rx="30" fill="transparent" stroke="transparent" stroke-width="0" stroke-opacity="100%" paint-order="stroke"></rect><svg width="256px" height="256px" viewBox="0 0 32 32" fill="currentColor" x="128" y="128" role="img" style="display:inline-block;vertical-align:middle" xmlns="http://www.w3.org/2000/svg"><g fill="currentColor"><path fill="currentColor" d="m29.338 15.934l-7.732-2.779l-3.232-4.058A2.99 2.99 0 0 0 16.054 8H8.058a2.998 2.998 0 0 0-2.48 1.312l-2.712 3.983A4.988 4.988 0 0 0 2 16.107V24a1 1 0 0 0 1 1h2.142a3.98 3.98 0 0 0 7.716 0h6.284a3.98 3.98 0 0 0 7.716 0H29a1 1 0 0 0 1-1v-7.125a1 1 0 0 0-.662-.941ZM9 26a2 2 0 1 1 2-2a2.003 2.003 0 0 1-2 2Zm14 0a2 2 0 1 1 2-2a2.002 2.002 0 0 1-2 2Zm5-3h-1.142a3.98 3.98 0 0 0-7.716 0h-6.284a3.98 3.98 0 0 0-7.716 0H4v-6.893a2.998 2.998 0 0 1 .52-1.688l2.711-3.981A1 1 0 0 1 8.058 10h7.996a.993.993 0 0 1 .764.354l3.4 4.269a1 1 0 0 0 .444.318L28 17.578Z"/></g></svg></svg>