<svg width="512" height="512" viewBox="0 0 512 512" style="color:currentColor" xmlns="http://www.w3.org/2000/svg" class="h-full w-full"><rect width="512" height="512" x="0" y="0" rx="30" fill="transparent" stroke="transparent" stroke-width="0" stroke-opacity="100%" paint-order="stroke"></rect><svg width="256px" height="256px" viewBox="0 0 32 32" fill="currentColor" x="128" y="128" role="img" style="display:inline-block;vertical-align:middle" xmlns="http://www.w3.org/2000/svg"><g fill="currentColor"><path fill="currentColor" d="M16 2C8.2 2 2 8.2 2 16s6.2 14 14 14s14-6.2 14-14S23.8 2 16 2zm0 26C9.4 28 4 22.6 4 16S9.4 4 16 4s12 5.4 12 12s-5.4 12-12 12z"/><path fill="currentColor" d="M21.4 23L16 17.6L10.6 23L9 21.4l5.4-5.4L9 10.6L10.6 9l5.4 5.4L21.4 9l1.6 1.6l-5.4 5.4l5.4 5.4z"/></g></svg></svg>