<svg width="512" height="512" viewBox="0 0 512 512" style="color:currentColor" xmlns="http://www.w3.org/2000/svg" class="h-full w-full"><rect width="512" height="512" x="0" y="0" rx="30" fill="transparent" stroke="transparent" stroke-width="0" stroke-opacity="100%" paint-order="stroke"></rect><svg width="256px" height="256px" viewBox="0 0 32 32" fill="currentColor" x="128" y="128" role="img" style="display:inline-block;vertical-align:middle" xmlns="http://www.w3.org/2000/svg"><g fill="currentColor"><path fill="currentColor" d="m27.4 14.7l-6.1-6.1C21 8.2 20.5 8 20 8h-8c-1.1 0-2 .9-2 2v18c0 1.1.9 2 2 2h14c1.1 0 2-.9 2-2V16.1c0-.5-.2-1-.6-1.4zM20 10l5.9 6H20v-6zm-8 18V10h6v6c0 1.1.9 2 2 2h6v10H12z"/><path fill="currentColor" d="M6 18H4V4c0-1.1.9-2 2-2h14v2H6v14z"/></g></svg></svg>