<svg width="512" height="512" viewBox="0 0 512 512" style="color:currentColor" xmlns="http://www.w3.org/2000/svg" class="h-full w-full"><rect width="512" height="512" x="0" y="0" rx="30" fill="transparent" stroke="transparent" stroke-width="0" stroke-opacity="100%" paint-order="stroke"></rect><svg width="256px" height="256px" viewBox="0 0 32 32" fill="currentColor" x="128" y="128" role="img" style="display:inline-block;vertical-align:middle" xmlns="http://www.w3.org/2000/svg"><g fill="currentColor"><path fill="currentColor" d="M11.947 19a4.948 4.948 0 0 1-3.499-8.447l5.106-5.104a4.948 4.948 0 0 1 6.998 6.998l-.553.552l-1.415-1.413l.557-.557a2.95 2.95 0 0 0-.004-4.166a3.02 3.02 0 0 0-4.17 0l-5.104 5.104a2.947 2.947 0 0 0 0 4.17a3.02 3.02 0 0 0 4.17 0l1.414 1.414a4.918 4.918 0 0 1-3.5 1.449Z"/><path fill="currentColor" d="M19.947 17a4.948 4.948 0 0 1-3.499-8.447l.553-.552l1.414 1.415l-.552.552a2.948 2.948 0 0 0 0 4.169a3.02 3.02 0 0 0 4.17 0l5.105-5.105a2.951 2.951 0 0 0 0-4.168a3.02 3.02 0 0 0-4.17 0l-1.414-1.415a4.948 4.948 0 0 1 6.998 6.998l-5.104 5.103a4.92 4.92 0 0 1-3.5 1.45Z"/><path fill="currentColor" d="M24 30H4a2.002 2.002 0 0 1-2-2V8a2.002 2.002 0 0 1 2-2h4v2H4v20h20V18h2v10a2.002 2.002 0 0 1-2 2Z"/></g></svg></svg>