<svg width="512" height="512" viewBox="0 0 512 512" style="color:currentColor" xmlns="http://www.w3.org/2000/svg" class="h-full w-full"><rect width="512" height="512" x="0" y="0" rx="30" fill="transparent" stroke="transparent" stroke-width="0" stroke-opacity="100%" paint-order="stroke"></rect><svg width="256px" height="256px" viewBox="0 0 32 32" fill="currentColor" x="128" y="128" role="img" style="display:inline-block;vertical-align:middle" xmlns="http://www.w3.org/2000/svg"><g fill="currentColor"><path fill="currentColor" d="M29 26H12a1 1 0 0 1-.707-.293l-9-9a1 1 0 0 1 0-1.414l9-9A1 1 0 0 1 12 6h17a1 1 0 0 1 1 1v18a1 1 0 0 1-1 1Zm-16.586-2H28V8H12.414l-8 8l8 8Z"/><path fill="currentColor" d="M20.414 16L25 11.414L23.586 10L19 14.586L14.414 10L13 11.414L17.586 16L13 20.586L14.414 22L19 17.414L23.586 22L25 20.586L20.414 16z"/></g></svg></svg>