<svg width="512" height="512" viewBox="0 0 512 512" style="color:currentColor" xmlns="http://www.w3.org/2000/svg" class="h-full w-full"><rect width="512" height="512" x="0" y="0" rx="30" fill="transparent" stroke="transparent" stroke-width="0" stroke-opacity="100%" paint-order="stroke"></rect><svg width="256px" height="256px" viewBox="0 0 32 32" fill="currentColor" x="128" y="128" role="img" style="display:inline-block;vertical-align:middle" xmlns="http://www.w3.org/2000/svg"><g fill="currentColor"><path fill="currentColor" d="M26 20h-8.17l2.58-2.59L19 16l-5 5l5 5l1.41-1.41L17.83 22H26v8h2v-8a2 2 0 0 0-2-2Z"/><path fill="currentColor" d="m23.71 9.29l-7-7A1 1 0 0 0 16 2H6a2 2 0 0 0-2 2v24a2 2 0 0 0 2 2h8v-2H6V4h8v6a2 2 0 0 0 2 2h6v2h2v-4a1 1 0 0 0-.29-.71ZM16 4.41L21.59 10H16Z"/></g></svg></svg>