<svg width="512" height="512" viewBox="0 0 512 512" style="color:currentColor" xmlns="http://www.w3.org/2000/svg" class="h-full w-full"><rect width="512" height="512" x="0" y="0" rx="30" fill="transparent" stroke="transparent" stroke-width="0" stroke-opacity="100%" paint-order="stroke"></rect><svg width="256px" height="256px" viewBox="0 0 24 24" fill="currentColor" x="128" y="128" role="img" style="display:inline-block;vertical-align:middle" xmlns="http://www.w3.org/2000/svg"><g fill="currentColor"><path fill="currentColor" fill-rule="evenodd" d="M3.9 2.5a.9.9 0 0 0-.9.9v14.194a.9.9 0 0 0 .9.9h4.116v3.03a.7.7 0 0 0 1.194.494l3.525-3.524h4.643a.9.9 0 0 0 .636-.264l2.722-2.722a.9.9 0 0 0 .264-.636V3.4a.9.9 0 0 0-.9-.9H3.9Zm7.319 5.2a.75.75 0 0 0-1.5 0v4.272a.75.75 0 1 0 1.5 0V7.7Zm5.016 0a.75.75 0 0 0-1.5 0v4.272a.75.75 0 1 0 1.5 0V7.7Z" clip-rule="evenodd"/></g></svg></svg>