<svg width="512" height="512" viewBox="0 0 512 512" style="color:currentColor" xmlns="http://www.w3.org/2000/svg" class="h-full w-full"><rect width="512" height="512" x="0" y="0" rx="30" fill="transparent" stroke="transparent" stroke-width="0" stroke-opacity="100%" paint-order="stroke"></rect><svg width="256px" height="256px" viewBox="0 0 24 24" fill="currentColor" x="128" y="128" role="img" style="display:inline-block;vertical-align:middle" xmlns="http://www.w3.org/2000/svg"><g fill="currentColor"><g fill="none"><g clip-path="url(#akarIconsTypescriptFill0)"><path fill="currentColor" d="M23.429 0H.57A.571.571 0 0 0 0 .571V23.43a.57.57 0 0 0 .571.571H23.43a.571.571 0 0 0 .571-.571V.57a.571.571 0 0 0-.572-.57Zm-9.143 12.826h-2.857v8.888H9.143v-8.888H6.286v-1.969h8v1.969Zm.64 8.38v-2.375s1.298.978 2.855.978s1.497-1.018 1.497-1.158c0-1.477-4.412-1.477-4.412-4.751c0-4.452 6.429-2.695 6.429-2.695l-.08 2.116s-1.078-.719-2.296-.719c-1.218 0-1.657.58-1.657 1.198c0 1.597 4.452 1.438 4.452 4.652c0 4.95-6.788 2.755-6.788 2.755Z"/></g><defs><clipPath id="akarIconsTypescriptFill0"><path fill="#fff" d="M0 0h24v24H0z"/></clipPath></defs></g></g></svg></svg>