<svg width="512" height="512" viewBox="0 0 512 512" style="color:currentColor" xmlns="http://www.w3.org/2000/svg" class="h-full w-full"><rect width="512" height="512" x="0" y="0" rx="30" fill="transparent" stroke="transparent" stroke-width="0" stroke-opacity="100%" paint-order="stroke"></rect><svg width="256px" height="256px" viewBox="0 0 32 32" fill="currentColor" x="128" y="128" role="img" style="display:inline-block;vertical-align:middle" xmlns="http://www.w3.org/2000/svg"><g fill="currentColor"><path fill="currentColor" d="M16 23a1.5 1.5 0 1 0 1.5 1.5A1.5 1.5 0 0 0 16 23zm-1-11h2v9h-2z"/><path fill="currentColor" d="M29 30H3a1 1 0 0 1-.887-1.461l13-25a1 1 0 0 1 1.774 0l13 25A1 1 0 0 1 29 30ZM4.65 28h22.7l.001-.003L16.002 6.17h-.004L4.648 27.997Z"/></g></svg></svg>